<?xml version="1.0" encoding="UTF-8" standalone="no"?>
<!DOCTYPE svg PUBLIC "-//W3C//DTD SVG 1.1//EN" "http://www.w3.org/Graphics/SVG/1.1/DTD/svg11.dtd">
<svg xmlns="http://www.w3.org/2000/svg" version="1.1" viewBox="0.00 0.00 512.00 512.00">
<g stroke-width="2.00" fill="none" stroke-linecap="butt">
<path stroke="#808080" vector-effect="non-scaling-stroke" d="
  M 290.91 411.01
  L 298.26 366.02
  A 10.40 10.39 64.8 0 1 299.52 362.51
  Q 311.09 342.48 323.11 321.62
  Q 327.83 313.42 337.13 317.33"
/>
<path stroke="#396c80" vector-effect="non-scaling-stroke" d="
  M 337.13 317.33
  Q 342.10 320.87 342.03 325.90
  Q 341.99 329.27 338.38 335.35
  Q 332.12 345.91 322.09 363.45
  A 0.48 0.48 0.0 0 0 322.27 364.11
  L 352.71 381.69
  A 0.34 0.34 0.0 0 0 353.18 381.56
  L 474.81 170.89
  A 0.34 0.33 29.9 0 0 474.68 170.43
  L 444.10 152.77
  A 0.34 0.34 0.0 0 0 443.63 152.90
  Q 412.55 206.70 381.42 260.66
  Q 376.71 268.82 367.48 264.79"
/>
<path stroke="#808080" vector-effect="non-scaling-stroke" d="
  M 367.48 264.79
  Q 362.56 261.30 362.55 256.29
  Q 362.55 253.24 365.56 248.04
  Q 382.02 219.63 403.59 182.23
  A 3.02 2.99 -30.0 0 0 404.01 180.70
  L 404.01 149.75
  A 0.75 0.75 0.0 0 0 403.26 149.00
  L 20.83 149.00
  A 0.83 0.83 0.0 0 0 20.00 149.83
  Q 20.01 343.68 19.99 387.26
  C 19.99 393.22 20.37 396.65 24.91 399.67
  Q 26.91 401.00 33.96 401.00
  Q 137.05 401.00 215.50 400.99
  Q 224.93 400.99 226.06 410.98"
/>
<path stroke="#396c80" vector-effect="non-scaling-stroke" d="
  M 211.99 129.00
  Q 401.19 129.00 403.25 128.95
  A 0.77 0.76 -0.8 0 0 403.99 128.19
  Q 404.02 122.05 403.96 87.78
  Q 403.95 81.27 399.54 78.67
  Q 396.85 77.09 389.17 77.06
  Q 376.25 77.01 211.99 77.00
  Q 47.74 77.00 34.81 77.05
  Q 27.13 77.08 24.44 78.66
  Q 20.03 81.26 20.02 87.77
  Q 19.96 122.04 19.99 128.18
  A 0.77 0.76 0.8 0 0 20.74 128.94
  Q 22.79 129.00 211.99 129.00"
/>
<path stroke="#802f2f" vector-effect="non-scaling-stroke" d="
  M 454.25 135.54
  L 484.50 153.01
  A 0.55 0.55 0.0 0 0 485.26 152.81
  L 489.44 145.56
  A 18.30 17.89 -60.0 0 0 483.10 120.77
  L 482.87 120.64
  A 18.30 17.89 -60.0 0 0 458.23 127.54
  L 454.04 134.79
  A 0.55 0.55 0.0 0 0 454.25 135.54"
/>
<path stroke="#808080" vector-effect="non-scaling-stroke" d="
  M 403.56 334.30
  L 365.26 400.63
  A 0.24 0.24 0.0 0 0 365.47 400.99
  Q 377.81 401.00 391.70 401.02
  C 397.02 401.03 400.22 400.03 402.86 395.68
  Q 404.28 393.34 404.01 386.12
  Q 404.00 386.01 404.00 334.42
  A 0.24 0.24 0.0 0 0 403.56 334.30"
/>
<path stroke="#6c6c72" vector-effect="non-scaling-stroke" d="
  M 338.81 397.23
  A 0.30 0.30 0.0 0 0 338.77 396.74
  L 316.07 383.63
  A 0.30 0.30 0.0 0 0 315.63 383.84
  L 309.63 420.44
  A 0.30 0.30 0.0 0 0 310.12 420.72
  L 338.81 397.23"
/>
<path stroke="#396c80" vector-effect="non-scaling-stroke" d="
  M 59.91 103.00
  A 9.96 9.96 0.0 0 0 49.95 93.04
  A 9.96 9.96 0.0 0 0 39.99 103.00
  A 9.96 9.96 0.0 0 0 49.95 112.96
  A 9.96 9.96 0.0 0 0 59.91 103.00"
/>
<path stroke="#396c80" vector-effect="non-scaling-stroke" d="
  M 96.77 103.00
  A 9.96 9.96 0.0 0 0 86.81 93.04
  A 9.96 9.96 0.0 0 0 76.85 103.00
  A 9.96 9.96 0.0 0 0 86.81 112.96
  A 9.96 9.96 0.0 0 0 96.77 103.00"
/>
<path stroke="#396c80" vector-effect="non-scaling-stroke" d="
  M 133.63 103.00
  A 9.96 9.96 0.0 0 0 123.67 93.04
  A 9.96 9.96 0.0 0 0 113.71 103.00
  A 9.96 9.96 0.0 0 0 123.67 112.96
  A 9.96 9.96 0.0 0 0 133.63 103.00"
/>
<path stroke="#396c80" vector-effect="non-scaling-stroke" d="
  M 374.60 102.87
  A 9.86 9.86 0.0 0 0 364.74 93.01
  L 216.94 93.01
  A 9.86 9.86 0.0 0 0 207.08 102.87
  L 207.08 103.13
  A 9.86 9.86 0.0 0 0 216.94 112.99
  L 364.74 112.99
  A 9.86 9.86 0.0 0 0 374.60 103.13
  L 374.60 102.87"
/>
<path stroke="#b9ecff" vector-effect="non-scaling-stroke" d="
  M 367.48 264.79
  L 357.59 282.11"
/>
<path stroke="#808080" vector-effect="non-scaling-stroke" d="
  M 357.59 282.11
  Q 352.28 279.19 347.55 282.06
  Q 342.92 284.88 342.55 289.79
  Q 342.09 295.88 347.53 299.51"
/>
<path stroke="#b9ecff" vector-effect="non-scaling-stroke" d="
  M 347.53 299.51
  L 337.13 317.33"
/>
<path stroke="#808080" vector-effect="non-scaling-stroke" d="
  M 266.20 410.99
  C 264.84 397.78 247.70 397.63 246.06 411.00"
/>
<path stroke="#808080" vector-effect="non-scaling-stroke" d="
  M 244.4607 235.9809
  A 9.86 9.86 0.0 0 0 240.9458 222.4870
  L 240.7216 222.3554
  A 9.86 9.86 0.0 0 0 227.2277 225.8703
  L 179.5593 307.1191
  A 9.86 9.86 0.0 0 0 183.0742 320.6130
  L 183.2984 320.7446
  A 9.86 9.86 0.0 0 0 196.7923 317.2297
  L 244.4607 235.9809"
/>
<path stroke="#808080" vector-effect="non-scaling-stroke" d="
  M 107.49 271.54
  Q 107.49 275.71 110.67 278.89
  Q 118.27 286.50 142.30 310.55
  Q 145.59 313.84 147.52 314.58
  C 155.61 317.68 163.61 309.81 160.54 301.69
  Q 159.80 299.72 157.08 297.01
  Q 134.03 273.99 132.40 272.29
  A 0.98 0.08 45.6 0 1 131.82 271.60
  Q 131.82 271.56 131.82 271.51
  Q 131.82 271.53 131.82 271.49
  A 0.98 0.08 -45.6 0 1 132.40 270.80
  Q 134.03 269.10 157.08 246.08
  Q 159.80 243.37 160.55 241.40
  C 163.62 233.29 155.62 225.41 147.53 228.51
  Q 145.60 229.25 142.31 232.54
  Q 118.27 256.59 110.68 264.19
  Q 107.50 267.38 107.49 271.54"
/>
<path stroke="#808080" vector-effect="non-scaling-stroke" d="
  M 316.53 271.54
  Q 316.53 267.38 313.35 264.19
  Q 305.75 256.59 281.71 232.54
  Q 278.42 229.25 276.49 228.51
  C 268.40 225.41 260.40 233.28 263.47 241.40
  Q 264.21 243.37 266.93 246.08
  Q 289.99 269.10 291.62 270.80
  A 0.98 0.08 45.6 0 1 292.20 271.49
  Q 292.20 271.53 292.20 271.51
  Q 292.20 271.56 292.20 271.60
  A 0.98 0.08 -45.6 0 1 291.62 272.29
  Q 289.99 273.99 266.93 297.01
  Q 264.21 299.72 263.47 301.69
  C 260.40 309.81 268.40 317.68 276.49 314.58
  Q 278.42 313.84 281.71 310.55
  Q 305.75 286.50 313.35 278.90
  Q 316.53 275.71 316.53 271.54"
/>
<path stroke="#396c80" vector-effect="non-scaling-stroke" d="
  M 347.53 299.51
  Q 356.22 302.66 360.35 296.72
  C 363.97 291.52 362.85 285.65 357.59 282.11"
/>
</g>
<path fill="#000000" d="
  M 512.00 133.47
  L 512.00 138.66
  Q 511.15 147.61 508.37 152.58
  Q 503.92 160.54 495.99 174.25
  Q 450.39 253.13 424.45 298.13
  A 3.34 3.28 60.6 0 0 424.00 299.80
  Q 424.09 359.55 423.96 390.23
  C 423.89 407.64 410.94 421.02 393.50 421.00
  Q 384.06 420.99 341.81 421.00
  A 1.37 1.36 24.7 0 0 340.93 421.32
  Q 319.09 439.28 301.80 453.29
  C 296.29 457.76 288.16 455.50 285.88 448.92
  Q 285.08 446.59 286.15 440.08
  Q 288.53 425.57 290.91 411.01
  L 298.26 366.02
  A 10.40 10.39 64.8 0 1 299.52 362.51
  Q 311.09 342.48 323.11 321.62
  Q 327.83 313.42 337.13 317.33
  Q 342.10 320.87 342.03 325.90
  Q 341.99 329.27 338.38 335.35
  Q 332.12 345.91 322.09 363.45
  A 0.48 0.48 0.0 0 0 322.27 364.11
  L 352.71 381.69
  A 0.34 0.34 0.0 0 0 353.18 381.56
  L 474.81 170.89
  A 0.34 0.33 29.9 0 0 474.68 170.43
  L 444.10 152.77
  A 0.34 0.34 0.0 0 0 443.63 152.90
  Q 412.55 206.70 381.42 260.66
  Q 376.71 268.82 367.48 264.79
  Q 362.56 261.30 362.55 256.29
  Q 362.55 253.24 365.56 248.04
  Q 382.02 219.63 403.59 182.23
  A 3.02 2.99 -30.0 0 0 404.01 180.70
  L 404.01 149.75
  A 0.75 0.75 0.0 0 0 403.26 149.00
  L 20.83 149.00
  A 0.83 0.83 0.0 0 0 20.00 149.83
  Q 20.01 343.68 19.99 387.26
  C 19.99 393.22 20.37 396.65 24.91 399.67
  Q 26.91 401.00 33.96 401.00
  Q 137.05 401.00 215.50 400.99
  Q 224.93 400.99 226.06 410.98
  Q 225.48 416.99 221.20 419.48
  Q 218.59 421.01 212.03 421.01
  Q 121.39 421.01 30.78 420.97
  C 14.38 420.96 2.00 409.71 0.00 393.59
  L 0.00 84.52
  C 1.53 72.27 8.97 62.40 20.74 58.49
  Q 26.19 56.68 40.41 56.94
  Q 46.08 57.05 393.00 56.98
  C 406.76 56.98 418.64 65.18 422.62 77.84
  Q 424.13 82.64 424.08 96.30
  Q 423.94 136.38 424.03 145.94
  A 0.27 0.26 -30.9 0 0 424.53 146.06
  Q 427.35 141.04 438.24 122.11
  Q 444.10 111.93 448.33 108.21
  C 460.53 97.48 477.57 95.10 492.00 102.90
  Q 509.29 112.25 512.00 133.47
  Z
  M 211.99 129.00
  Q 401.19 129.00 403.25 128.95
  A 0.77 0.76 -0.8 0 0 403.99 128.19
  Q 404.02 122.05 403.96 87.78
  Q 403.95 81.27 399.54 78.67
  Q 396.85 77.09 389.17 77.06
  Q 376.25 77.01 211.99 77.00
  Q 47.74 77.00 34.81 77.05
  Q 27.13 77.08 24.44 78.66
  Q 20.03 81.26 20.02 87.77
  Q 19.96 122.04 19.99 128.18
  A 0.77 0.76 0.8 0 0 20.74 128.94
  Q 22.79 129.00 211.99 129.00
  Z
  M 454.25 135.54
  L 484.50 153.01
  A 0.55 0.55 0.0 0 0 485.26 152.81
  L 489.44 145.56
  A 18.30 17.89 -60.0 0 0 483.10 120.77
  L 482.87 120.64
  A 18.30 17.89 -60.0 0 0 458.23 127.54
  L 454.04 134.79
  A 0.55 0.55 0.0 0 0 454.25 135.54
  Z
  M 403.56 334.30
  L 365.26 400.63
  A 0.24 0.24 0.0 0 0 365.47 400.99
  Q 377.81 401.00 391.70 401.02
  C 397.02 401.03 400.22 400.03 402.86 395.68
  Q 404.28 393.34 404.01 386.12
  Q 404.00 386.01 404.00 334.42
  A 0.24 0.24 0.0 0 0 403.56 334.30
  Z
  M 338.81 397.23
  A 0.30 0.30 0.0 0 0 338.77 396.74
  L 316.07 383.63
  A 0.30 0.30 0.0 0 0 315.63 383.84
  L 309.63 420.44
  A 0.30 0.30 0.0 0 0 310.12 420.72
  L 338.81 397.23
  Z"
/>
<path fill="#72d8ff" d="
  M 211.99 77.00
  Q 376.25 77.01 389.17 77.06
  Q 396.85 77.09 399.54 78.67
  Q 403.95 81.27 403.96 87.78
  Q 404.02 122.05 403.99 128.19
  A 0.77 0.76 -0.8 0 1 403.25 128.95
  Q 401.19 129.00 211.99 129.00
  Q 22.79 129.00 20.74 128.94
  A 0.77 0.76 0.8 0 1 19.99 128.18
  Q 19.96 122.04 20.02 87.77
  Q 20.03 81.26 24.44 78.66
  Q 27.13 77.08 34.81 77.05
  Q 47.74 77.00 211.99 77.00
  Z
  M 59.91 103.00
  A 9.96 9.96 0.0 0 0 49.95 93.04
  A 9.96 9.96 0.0 0 0 39.99 103.00
  A 9.96 9.96 0.0 0 0 49.95 112.96
  A 9.96 9.96 0.0 0 0 59.91 103.00
  Z
  M 96.77 103.00
  A 9.96 9.96 0.0 0 0 86.81 93.04
  A 9.96 9.96 0.0 0 0 76.85 103.00
  A 9.96 9.96 0.0 0 0 86.81 112.96
  A 9.96 9.96 0.0 0 0 96.77 103.00
  Z
  M 133.63 103.00
  A 9.96 9.96 0.0 0 0 123.67 93.04
  A 9.96 9.96 0.0 0 0 113.71 103.00
  A 9.96 9.96 0.0 0 0 123.67 112.96
  A 9.96 9.96 0.0 0 0 133.63 103.00
  Z
  M 374.60 102.87
  A 9.86 9.86 0.0 0 0 364.74 93.01
  L 216.94 93.01
  A 9.86 9.86 0.0 0 0 207.08 102.87
  L 207.08 103.13
  A 9.86 9.86 0.0 0 0 216.94 112.99
  L 364.74 112.99
  A 9.86 9.86 0.0 0 0 374.60 103.13
  L 374.60 102.87
  Z"
/>
<circle fill="#000000" cx="49.95" cy="103.00" r="9.96"/>
<circle fill="#000000" cx="86.81" cy="103.00" r="9.96"/>
<circle fill="#000000" cx="123.67" cy="103.00" r="9.96"/>
<rect fill="#000000" x="207.08" y="93.01" width="167.52" height="19.98" rx="9.86"/>
<path fill="#ff5d5d" d="
  M 454.25 135.54
  A 0.55 0.55 0.0 0 1 454.04 134.79
  L 458.23 127.54
  A 18.30 17.89 -60.0 0 1 482.87 120.64
  L 483.10 120.77
  A 18.30 17.89 -60.0 0 1 489.44 145.56
  L 485.26 152.81
  A 0.55 0.55 0.0 0 1 484.50 153.01
  L 454.25 135.54
  Z"
/>
<path fill="#ffffff" d="
  M 367.48 264.79
  L 357.59 282.11
  Q 352.28 279.19 347.55 282.06
  Q 342.92 284.88 342.55 289.79
  Q 342.09 295.88 347.53 299.51
  L 337.13 317.33
  Q 327.83 313.42 323.11 321.62
  Q 311.09 342.48 299.52 362.51
  A 10.40 10.39 64.8 0 0 298.26 366.02
  L 290.91 411.01
  L 266.20 410.99
  C 264.84 397.78 247.70 397.63 246.06 411.00
  L 226.06 410.98
  Q 224.93 400.99 215.50 400.99
  Q 137.05 401.00 33.96 401.00
  Q 26.91 401.00 24.91 399.67
  C 20.37 396.65 19.99 393.22 19.99 387.26
  Q 20.01 343.68 20.00 149.83
  A 0.83 0.83 0.0 0 1 20.83 149.00
  L 403.26 149.00
  A 0.75 0.75 0.0 0 1 404.01 149.75
  L 404.01 180.70
  A 3.02 2.99 -30.0 0 1 403.59 182.23
  Q 382.02 219.63 365.56 248.04
  Q 362.55 253.24 362.55 256.29
  Q 362.56 261.30 367.48 264.79
  Z
  M 244.4607 235.9809
  A 9.86 9.86 0.0 0 0 240.9458 222.4870
  L 240.7216 222.3554
  A 9.86 9.86 0.0 0 0 227.2277 225.8703
  L 179.5593 307.1191
  A 9.86 9.86 0.0 0 0 183.0742 320.6130
  L 183.2984 320.7446
  A 9.86 9.86 0.0 0 0 196.7923 317.2297
  L 244.4607 235.9809
  Z
  M 107.49 271.54
  Q 107.49 275.71 110.67 278.89
  Q 118.27 286.50 142.30 310.55
  Q 145.59 313.84 147.52 314.58
  C 155.61 317.68 163.61 309.81 160.54 301.69
  Q 159.80 299.72 157.08 297.01
  Q 134.03 273.99 132.40 272.29
  A 0.98 0.08 45.6 0 1 131.82 271.60
  Q 131.82 271.56 131.82 271.51
  Q 131.82 271.53 131.82 271.49
  A 0.98 0.08 -45.6 0 1 132.40 270.80
  Q 134.03 269.10 157.08 246.08
  Q 159.80 243.37 160.55 241.40
  C 163.62 233.29 155.62 225.41 147.53 228.51
  Q 145.60 229.25 142.31 232.54
  Q 118.27 256.59 110.68 264.19
  Q 107.50 267.38 107.49 271.54
  Z
  M 316.53 271.54
  Q 316.53 267.38 313.35 264.19
  Q 305.75 256.59 281.71 232.54
  Q 278.42 229.25 276.49 228.51
  C 268.40 225.41 260.40 233.28 263.47 241.40
  Q 264.21 243.37 266.93 246.08
  Q 289.99 269.10 291.62 270.80
  A 0.98 0.08 45.6 0 1 292.20 271.49
  Q 292.20 271.53 292.20 271.51
  Q 292.20 271.56 292.20 271.60
  A 0.98 0.08 -45.6 0 1 291.62 272.29
  Q 289.99 273.99 266.93 297.01
  Q 264.21 299.72 263.47 301.69
  C 260.40 309.81 268.40 317.68 276.49 314.58
  Q 278.42 313.84 281.71 310.55
  Q 305.75 286.50 313.35 278.90
  Q 316.53 275.71 316.53 271.54
  Z"
/>
<path fill="#72d8ff" d="
  M 337.13 317.33
  L 347.53 299.51
  Q 356.22 302.66 360.35 296.72
  C 363.97 291.52 362.85 285.65 357.59 282.11
  L 367.48 264.79
  Q 376.71 268.82 381.42 260.66
  Q 412.55 206.70 443.63 152.90
  A 0.34 0.34 0.0 0 1 444.10 152.77
  L 474.68 170.43
  A 0.34 0.33 29.9 0 1 474.81 170.89
  L 353.18 381.56
  A 0.34 0.34 0.0 0 1 352.71 381.69
  L 322.27 364.11
  A 0.48 0.48 0.0 0 1 322.09 363.45
  Q 332.12 345.91 338.38 335.35
  Q 341.99 329.27 342.03 325.90
  Q 342.10 320.87 337.13 317.33
  Z"
/>
<rect fill="#000000" x="-9.99" y="-56.96" transform="translate(212.01,271.55) rotate(30.4)" width="19.98" height="113.92" rx="9.86"/>
<path fill="#000000" d="
  M 131.82 271.51
  Q 131.82 271.56 131.82 271.60
  A 0.98 0.08 45.6 0 0 132.40 272.29
  Q 134.03 273.99 157.08 297.01
  Q 159.80 299.72 160.54 301.69
  C 163.61 309.81 155.61 317.68 147.52 314.58
  Q 145.59 313.84 142.30 310.55
  Q 118.27 286.50 110.67 278.89
  Q 107.49 275.71 107.49 271.54
  Q 107.50 267.38 110.68 264.19
  Q 118.27 256.59 142.31 232.54
  Q 145.60 229.25 147.53 228.51
  C 155.62 225.41 163.62 233.29 160.55 241.40
  Q 159.80 243.37 157.08 246.08
  Q 134.03 269.10 132.40 270.80
  A 0.98 0.08 -45.6 0 0 131.82 271.49
  Q 131.82 271.53 131.82 271.51
  Z"
/>
<path fill="#000000" d="
  M 316.53 271.54
  Q 316.53 275.71 313.35 278.90
  Q 305.75 286.50 281.71 310.55
  Q 278.42 313.84 276.49 314.58
  C 268.40 317.68 260.40 309.81 263.47 301.69
  Q 264.21 299.72 266.93 297.01
  Q 289.99 273.99 291.62 272.29
  A 0.98 0.08 -45.6 0 0 292.20 271.60
  Q 292.20 271.56 292.20 271.51
  Q 292.20 271.53 292.20 271.49
  A 0.98 0.08 45.6 0 0 291.62 270.80
  Q 289.99 269.10 266.93 246.08
  Q 264.21 243.37 263.47 241.40
  C 260.40 233.28 268.40 225.41 276.49 228.51
  Q 278.42 229.25 281.71 232.54
  Q 305.75 256.59 313.35 264.19
  Q 316.53 267.38 316.53 271.54
  Z"
/>
<path fill="#000000" d="
  M 357.59 282.11
  C 362.85 285.65 363.97 291.52 360.35 296.72
  Q 356.22 302.66 347.53 299.51
  Q 342.09 295.88 342.55 289.79
  Q 342.92 284.88 347.55 282.06
  Q 352.28 279.19 357.59 282.11
  Z"
/>
<path fill="#ffffff" d="
  M 403.56 334.30
  A 0.24 0.24 0.0 0 1 404.00 334.42
  Q 404.00 386.01 404.01 386.12
  Q 404.28 393.34 402.86 395.68
  C 400.22 400.03 397.02 401.03 391.70 401.02
  Q 377.81 401.00 365.47 400.99
  A 0.24 0.24 0.0 0 1 365.26 400.63
  L 403.56 334.30
  Z"
/>
<path fill="#d8d8e4" d="
  M 338.81 397.23
  L 310.12 420.72
  A 0.30 0.30 0.0 0 1 309.63 420.44
  L 315.63 383.84
  A 0.30 0.30 0.0 0 1 316.07 383.63
  L 338.77 396.74
  A 0.30 0.30 0.0 0 1 338.81 397.23
  Z"
/>
<path fill="#000000" d="
  M 266.20 410.99
  C 264.55 424.46 247.38 424.17 246.06 411.00
  C 247.70 397.63 264.84 397.78 266.20 410.99
  Z"
/>
</svg>
